PathFileType	4	(X/Y/Z)	C:/Users/opensim2020/Desktop/walking_exp_matlab/subject02_walking14_straight_04.trc	
DataRate	CameraRate	NumFrames	NumMarkers	Units	OrigDataRate	OrigDataStartFrame	OrigNumFrames	
100.00	100.00	5	41	mm	100.00	1763	137	
Frame#	Time	LFHD			RFHD			LBHD			RBHD			C7			T10			CLAV			STRN			RBAK			LSHO			LUPA			LELB			LFRM			LWRA			LWRB			LFIN			RSHO			RUPA			RELB			RFRM			RWRA			RWRB			RFIN			LASI			RASI			LPSI			RPSI			LTHI			LKNE			LTIB			LANK			LHEE			LTOE			RTHI			RKNE			RTIB			RANK			RHEE			RTOE			*39			*40			
		X1	Y1	Z1	X2	Y2	Z2	X3	Y3	Z3	X4	Y4	Z4	X5	Y5	Z5	X6	Y6	Z6	X7	Y7	Z7	X8	Y8	Z8	X9	Y9	Z9	X10	Y10	Z10	X11	Y11	Z11	X12	Y12	Z12	X13	Y13	Z13	X14	Y14	Z14	X15	Y15	Z15	X16	Y16	Z16	X17	Y17	Z17	X18	Y18	Z18	X19	Y19	Z19	X20	Y20	Z20	X21	Y21	Z21	X22	Y22	Z22	X23	Y23	Z23	X24	Y24	Z24	X25	Y25	Z25	X26	Y26	Z26	X27	Y27	Z27	X28	Y28	Z28	X29	Y29	Z29	X30	Y30	Z30	X31	Y31	Z31	X32	Y32	Z32	X33	Y33	Z33	X34	Y34	Z34	X35	Y35	Z35	X36	Y36	Z36	X37	Y37	Z37	X38	Y38	Z38	X39	Y39	Z39	X40	Y40	Z40	X41	Y41	Z41	

86	0.850	-1025.93018	-247.00668	1741.81519	-1168.90942	-251.63368	1729.20984	-1025.46924	-114.91956	1670.12366	-1168.13123	-107.02045	1656.09631	-1103.42957	-64.65425	1524.58350	-1133.46057	-31.28275	1248.06702	-1088.38916	-207.88632	1466.23352	-1104.16870	-272.72287	1299.35864	-1183.24194	-21.67693	1351.49597	-922.68945	-125.01453	1493.34448	-845.49097	-125.28014	1291.47095	-832.17456	-134.78954	1150.07336	-825.58087	-171.47969	1021.32635	-859.79169	-253.85522	913.73212	-829.87915	-207.12854	903.83020	-823.48822	-241.57610	849.18970	-1285.28088	-147.80580	1508.78857	-1389.23328	-140.29530	1325.24194	-1418.69751	-166.56264	1182.87817	-1446.81714	-210.09940	1073.24902	-1439.38940	-273.57770	952.92261	-1471.81641	-228.03947	946.17444	-1480.87610	-273.51633	890.33917	-995.09235	-251.39333	996.16840	-1246.21960	-274.26184	988.04175	-1091.58972	-51.10004	1035.40234	-1206.88647	-59.08464	1042.58533	-940.49481	-257.42297	683.10590	-970.35754	-289.85614	498.57935	-992.47260	-178.49666	349.12369	-1034.48645	-106.16074	141.31572	-1095.19556	-76.69782	123.68609	-992.65875	-226.73424	56.97544	-1321.15613	-188.28745	676.44244	-1283.02722	-169.16214	465.47977	-1297.07813	-112.99619	285.22040	-1263.57385	-75.40289	94.27687	-1212.50366	-32.54379	41.05486	-1270.01221	-224.96230	37.26468	-1116.07336	-149.72882	1812.98438			 
87	0.860	-1025.18457	-260.73184	1741.21375	-1167.97888	-265.76950	1728.68542	-1025.19507	-128.30899	1669.71521	-1168.06360	-120.95266	1655.64331	-1103.98547	-78.12660	1524.24377	-1135.03760	-44.25963	1247.93494	-1088.20435	-220.47392	1465.35303	-1104.40063	-285.48624	1298.47205	-1185.03931	-35.22486	1351.84851	-922.75549	-137.38069	1491.90784	-845.88165	-134.47531	1290.04980	-832.30048	-141.11206	1148.61938	-823.53259	-172.32703	1018.99707	-853.85522	-251.55299	907.82751	-825.64575	-203.18956	900.11816	-817.46973	-235.50011	844.14264	-1285.15820	-162.54654	1508.91711	-1390.38928	-158.04478	1326.14343	-1420.51111	-187.05003	1184.04175	-1448.00830	-233.67091	1075.48755	-1439.11121	-299.85443	956.55817	-1472.95508	-255.19313	949.06451	-1480.83752	-302.39249	894.36908	-997.51459	-264.32663	995.88104	-1247.85461	-285.22253	986.56824	-1091.00793	-63.40121	1035.31726	-1206.46729	-70.96896	1042.25708	-940.10492	-273.76587	684.55450	-970.90009	-309.57184	499.01697	-992.48920	-206.54317	342.67508	-1034.40735	-147.16788	130.55727	-1095.18823	-119.58992	110.75025	-992.86664	-273.17572	54.64617	-1321.05432	-194.94067	675.68188	-1282.81616	-172.55534	464.89822	-1296.74182	-114.79363	285.27277	-1263.19189	-75.49267	94.68367	-1212.07922	-32.56588	41.04947	-1270.04175	-224.98517	37.12445	-1115.18604	-163.58423	1812.34326			 
88	0.870	-1024.31445	-274.38055	1740.05017	-1167.02368	-279.91833	1727.92383	-1024.97131	-141.87909	1668.51355	-1167.83655	-135.00400	1655.10083	-1104.38416	-91.72065	1523.61133	-1136.21960	-57.20681	1247.53674	-1087.78064	-234.60504	1464.35632	-1104.62476	-298.92041	1297.32117	-1186.42810	-48.80426	1351.68152	-922.72003	-150.04030	1490.14270	-846.16492	-143.47316	1288.06482	-832.36963	-147.38600	1147.04675	-821.47888	-173.46602	1016.73352	-848.07709	-249.06792	902.17950	-821.56360	-199.48019	896.67621	-811.64453	-229.10663	839.51263	-1284.99829	-177.21278	1508.66479	-1391.38110	-175.66208	1326.66138	-1422.28735	-207.48735	1184.99011	-1448.83618	-256.92218	1077.35706	-1438.80359	-326.08972	960.33691	-1473.47095	-282.32935	951.66211	-1480.46643	-331.12198	898.38513	-998.94196	-278.49493	995.44232	-1249.29980	-296.21225	984.70398	-1090.27063	-75.59294	1035.07312	-1205.76917	-82.75198	1041.55603	-939.92719	-290.02740	685.75189	-971.26422	-328.51401	499.15497	-992.13525	-234.60680	335.93555	-1033.62000	-189.15517	120.11501	-1094.28271	-162.57608	98.49879	-992.50787	-320.12704	53.15308	-1320.68518	-201.78380	674.69489	-1282.45874	-176.16246	464.26834	-1296.39063	-116.58293	285.29297	-1262.83411	-75.85227	94.89989	-1211.84167	-32.53788	41.56784	-1270.13647	-225.20752	37.08787	-1114.55750	-177.64865	1811.67542			 
89	0.880	-1022.88861	-287.67850	1738.48779	-1165.91321	-294.04581	1726.88184	-1024.66724	-155.24684	1667.54382	-1167.52466	-149.02867	1654.25781	-1104.80408	-105.31747	1522.91431	-1136.98352	-70.19582	1246.83301	-1087.52063	-247.31346	1462.79028	-1104.81836	-311.20996	1295.47229	-1187.66260	-62.45036	1351.27966	-922.62585	-162.80264	1488.11548	-846.30457	-152.21695	1286.06152	-832.25543	-153.71332	1145.43384	-819.48340	-174.72269	1014.77429	-842.40149	-246.50272	897.08716	-817.54285	-195.94788	893.67712	-806.22253	-222.38452	835.63574	-1284.81836	-191.88994	1508.08167	-1392.17664	-193.11908	1326.79614	-1424.19775	-227.81024	1185.88867	-1449.69434	-280.41272	1079.25171	-1438.23755	-352.19397	964.08044	-1473.67065	-309.25827	954.22229	-1479.86316	-359.76944	902.27289	-1000.27850	-291.92709	994.34882	-1250.51758	-307.22498	982.53955	-1089.23022	-87.99491	1034.43787	-1204.90173	-94.28199	1040.64368	-939.58606	-305.75647	686.55603	-971.54376	-346.57004	499.00024	-991.57458	-262.55814	329.17316	-1032.20154	-231.81868	110.34813	-1092.97302	-206.88303	86.97850	-991.36835	-367.20813	52.77924	-1320.48840	-209.07098	673.57550	-1281.95996	-179.96684	463.55557	-1295.91052	-118.38203	285.32825	-1262.64063	-76.43770	94.99268	-1211.44128	-32.69217	41.86685	-1270.21802	-225.24593	36.97131	-1113.79956	-191.72437	1810.69666			 
90	0.890	-1021.96283	-301.81494	1737.00183	-1164.78564	-308.17636	1725.62598	-1024.20056	-169.04402	1666.10840	-1167.24011	-163.01324	1653.39380	-1104.97778	-119.14029	1521.65161	-1137.33594	-83.18249	1245.86877	-1087.13147	-260.64481	1461.06750	-1104.88538	-324.70944	1293.93970	-1188.74817	-76.07093	1350.66614	-922.46204	-175.79562	1485.91797	-846.56482	-161.82475	1283.66333	-832.07983	-159.90340	1143.77393	-817.54718	-175.87956	1012.82495	-837.35059	-243.39885	892.17578	-813.77344	-192.27875	891.03278	-800.86890	-216.02910	832.26941	-1284.47351	-206.53868	1507.28467	-1392.80908	-210.48138	1326.65210	-1425.58521	-248.00221	1186.37878	-1450.11243	-303.68704	1081.01904	-1437.28345	-377.68872	967.60193	-1473.35828	-335.91321	956.60529	-1479.02295	-387.99173	906.43976	-1001.21466	-305.28952	992.75067	-1251.62903	-318.29199	980.12341	-1088.12292	-100.35845	1033.51135	-1203.86450	-105.74967	1039.36511	-939.24396	-320.61404	686.94177	-971.71216	-363.77631	498.45859	-990.90533	-290.30045	322.62097	-1030.21826	-274.99927	101.65044	-1090.74585	-250.92580	76.57749	-989.33643	-413.88342	53.49773	-1320.47827	-216.71272	672.30475	-1281.38647	-183.90384	462.82916	-1295.34509	-120.28326	285.39844	-1262.22546	-76.90203	95.30819	-1211.06653	-32.83238	42.39937	-1270.36670	-225.34229	36.91472	-1112.83557	-205.81075	1809.60669			 
